OpenSim_Sub08_CSStiffKnee_LCS.mot
version=1
nRows=79
nColumns=11
inDegrees=no
endheader
time	Bot_Shank	2nd_Bot_Shank	2nd_Top_Shank	Top_Shank	Bot_Thigh	Med_Thigh	Top_Thigh	BNOx	BNOy	BNOZ
39.61000000	8534.94886104	8901.95807369	9364.02175033	8962.84081935	10197.19372863	10867.16043402	11482.45153898	179.97503301	-79.63488766	-118.35162808
39.62000000	8534.96391823	8897.56470295	9363.12065800	8963.06826817	10192.47683389	10856.94871860	11474.83463003	179.19669758	-79.85835193	-152.76466165
39.63000000	8535.59616141	8890.88114019	9361.64732542	8961.59629141	10187.68746996	10848.11275873	11465.90682296	178.43648255	-80.06588825	-176.15690153
39.64000000	8536.64633340	8882.17651667	9359.58097531	8958.55614105	10182.83132709	10840.65001940	11455.87064597	177.67319070	-80.23641444	-189.06480341
39.65000000	8537.81986885	8871.90059004	9356.92169433	8954.24483243	10177.87590228	10834.44118744	11445.01837744	176.87807704	-80.34274392	-193.06618312
39.66000000	8538.82213057	8860.50325409	9353.66958481	8948.95950583	10172.78866378	10829.36686170	11433.64236337	176.02239090	-80.35768557	-189.73964121
39.67000000	8539.35848138	8848.43440258	9349.82474914	8942.99730151	10167.53707982	10825.30764102	11422.03494976	175.07738162	-80.25404821	-180.66377825
39.68000000	8539.13428407	8836.14392930	9345.38728966	8936.65535975	10162.08861864	10822.14412423	11410.48848260	174.01429852	-80.00464071	-167.41719480
39.69000000	8537.85490147	8824.08172801	9340.35730875	8930.23082082	10156.41074848	10819.75691017	11399.29530791	172.80439093	-79.58227191	-151.57849142
39.70000000	8535.22569639	8812.69769251	9334.73490875	8924.02082498	10150.47093758	10818.02659768	11388.74777169	171.41890820	-78.95975067	-134.72626868
39.71000000	8530.95203163	8802.44171655	9328.52019203	8918.32251251	10144.23665416	10816.83378560	11379.13821993	169.82909965	-78.10988582	-118.43912714
39.72000000	8524.73927002	8793.76369392	9321.71326096	8913.43302368	10137.67536648	10816.05907277	11370.75899863	168.00621461	-77.00548623	-104.29566736
39.73000000	8516.41568281	8787.05025673	9314.38358159	8909.68798275	10130.77824125	10815.59120567	11363.84901339	165.93522402	-75.63110679	-93.59987213
39.74000000	8506.47432596	8782.34586870	9306.97579293	8907.63116540	10123.66462509	10815.36299966	11358.35812233	163.67531593	-74.03483418	-86.17037729
39.75000000	8495.63198586	8779.57983826	9300.06079687	8907.87639980	10116.49700305	10815.32210124	11354.13890591	161.31065585	-72.28613645	-81.32593145
39.76000000	8484.60561756	8778.68138703	9294.20959044	8911.03756689	10109.43789263	10815.41616813	11351.04387128	158.92542810	-70.45449775	-78.38490652
39.77000000	8474.11217605	8779.57973664	9289.99317066	8917.72854763	10102.64981140	10815.59285803	11348.92552556	156.60381702	-68.60940224	-76.66567441
39.78000000	8464.86861635	8782.20410873	9287.98253458	8928.56322296	10096.29527686	10815.79982864	11347.63637590	154.43000694	-66.82033407	-75.48660702
39.79000000	8457.59189349	8786.48372492	9288.74867921	8944.15547384	10090.53680657	10815.98473766	11347.02892944	152.48818219	-65.15677740	-74.16607624
39.80000000	8452.87779910	8792.30171674	9292.70862717	8964.87718372	10085.48562311	10816.10353679	11346.92019432	150.85112979	-63.68448710	-72.16227285
39.81000000	8450.66677887	8799.29192441	9299.44658741	8989.79132500	10080.97550607	10816.15703806	11346.93517232	149.52999133	-62.44904728	-69.68963688
39.82000000	8450.67872457	8807.00429024	9308.26648896	9017.52036161	10076.74686276	10816.16115107	11346.63424634	148.51516184	-61.48925365	-67.21712085
39.83000000	8452.63336178	8814.98869333	9318.47204964	9046.68642550	10072.54003012	10816.13179680	11345.57775057	147.79702074	-60.84389680	-65.21386912
39.84000000	8456.25041605	8822.79501275	9329.36698728	9075.91164863	10068.09534512	10816.08489623	11343.32601918	147.36594743	-60.55176732	-64.14902601
39.85000000	8461.24961297	8829.97312760	9340.25501970	9103.81816297	10063.15314469	10816.03637034	11339.43938638	147.21232133	-60.65165579	-64.49173586
39.86000000	8467.35067810	8836.07291696	9350.43986471	9129.02810048	10057.45376578	10816.00214010	11333.47818634	147.32652185	-61.18235282	-66.71114301
39.87000000	8474.27333702	8840.64425991	9359.22524015	9150.16359312	10050.73754535	10815.99812649	11325.00275326	147.69892841	-62.18264899	-71.27639178
39.88000000	8481.73857039	8843.30185150	9365.97360109	9166.06477320	10042.82711389	10816.03593386	11313.74999050	148.32188422	-63.67049378	-78.43939276
39.89000000	8489.47414755	8844.01096198	9370.36509957	9176.75088870	10033.99020947	10816.10381890	11300.41182511	149.19835443	-65.55111168	-87.27708720
39.90000000	8497.21012248	8842.85484619	9372.18680716	9182.63801403	10024.64436925	10816.18218073	11286.00159330	150.33487891	-67.69179004	-96.47098535
39.91000000	8504.67655091	8839.91684789	9371.22587602	9184.14252263	10015.20724328	10816.25141253	11271.53287353	151.73800023	-69.95978766	-104.70229949
39.92000000	8511.60348856	8835.28031084	9367.26945829	9181.68078796	10006.09648160	10816.29190751	11258.01924422	153.41426096	-72.22236331	-110.65224188
39.93000000	8517.72099114	8829.02857880	9360.10470613	9175.66918344	9997.72973426	10816.28405888	11246.47428382	155.37020367	-74.34677577	-113.00202481
39.94000000	8522.75911439	8821.24499553	9349.51877170	9166.52408253	9990.52465130	10816.20825981	11237.91157075	157.61237093	-76.20028381	-110.43286054
39.95000000	8526.44791401	8812.01290479	9335.29880714	9154.66185866	9984.89888277	10816.04490352	11233.34468346	160.14730532	-77.65014622	-101.62596135
39.96000000	8528.56816182	8801.47414556	9317.38529610	9140.55157614	9981.20237239	10815.78070465	11233.61698323	162.98090931	-78.57693250	-85.52408192
39.97000000	8529.27545321	8790.20287306	9296.85193779	9125.05171750	9979.28467182	10815.44909721	11238.31382017	166.11435469	-78.95958675	-63.00293883
39.98000000	8528.89338064	8778.96700794	9275.28034199	9109.19530375	9978.77105554	10815.10445501	11246.45670006	169.54669291	-78.82114484	-35.80460789
39.99000000	8527.74632899	8768.53538483	9254.25451429	9094.01617916	9979.28574012	10814.80125061	11257.06446907	173.27696544	-78.18485063	-5.67525152
40	8526.15868314	8759.67683835	9235.35846027	9080.54818801	9980.45294211	10814.59395660	11269.15597333	177.30421376	-77.07394798	25.63896786
40.01000000	8524.45482798	8753.16020314	9220.17618551	9069.82517458	9981.89687807	10814.53704553	11281.75005899	181.62747932	-75.51168074	56.39188784
40.02000000	8522.95914839	8749.75431384	9210.29169561	9062.88098314	9983.24176458	10814.68498997	11293.86557219	186.24580359	-73.52129277	84.83734601
40.03000000	8521.99602925	8750.22800506	9207.28899613	9060.74945797	9984.11181818	10815.09226251	11304.52135908	191.15822804	-71.12602793	109.22917995
40.04000000	8521.88985545	8755.35011145	9212.75209268	9064.46444336	9984.13125545	10815.81333570	11312.73626581	196.36379414	-68.34913007	127.82122723
40.05000000	8522.89320686	8765.66434547	9227.83929194	9074.75254093	9983.01619693	10816.87352528	11317.68453457	201.84510213	-65.22505422	139.14046958
40.06000000	8524.72797944	8780.05062605	9250.56271978	9090.06963706	9981.16199111	10818.08265979	11319.68888147	207.46324146	-61.87111281	143.73259451
40.07000000	8526.87821506	8796.64315494	9277.52437451	9107.85387688	9979.26841843	10819.15398574	11319.58677203	213.02484007	-58.44175525	143.04807946
40.08000000	8528.82683362	8813.57261637	9305.31960287	9125.53860481	9978.03669536	10819.80029408	11318.21809983	218.33626901	-55.09160612	138.54166974
40.09000000	8530.05675504	8828.96969455	9330.54375164	9140.55716529	9978.16803834	10819.73437575	11316.42275846	223.20389932	-51.97529000	131.66811067
40.10000000	8530.05089921	8840.96507370	9349.79216756	9150.34290277	9980.36366383	10818.66902171	11315.04064149	227.43410203	-49.24743146	123.88214756
40.11000000	8528.29218605	8847.68943804	9359.66019740	9152.32916167	9985.32478828	10816.31702289	11314.91164251	230.83324821	-47.06265507	116.63852572
40.12000000	8524.39076270	8847.66628120	9357.46513375	9144.53285696	9993.61477558	10812.50610627	11316.74107665	233.24735888	-45.54699618	111.18255068
40.13000000	8518.64492024	8841.54371623	9344.42911476	9128.12730762	10005.05137560	10807.68566239	11320.50635395	234.73691320	-44.67185719	107.62671441
40.14000000	8511.58454173	8830.68488785	9323.08843791	9105.34810709	10019.20140494	10802.51430001	11325.93991107	235.43456529	-44.35659946	105.70226524
40.15000000	8503.73968473	8816.45347961	9295.98039098	9078.43164933	10035.63149112	10797.65078558	11332.77400005	235.47302363	-44.52054513	105.14016423
40.16000000	8495.64040680	8800.21317508	9265.64226173	9049.61432827	10053.90826165	10793.75388555	11340.74087295	234.98499675	-45.08301634	105.67137242
40.17000000	8487.81676551	8783.32765780	9234.61133795	9021.13253788	10073.59834404	10791.48236635	11349.57278181	234.10319315	-45.96333524	107.02685086
40.18000000	8480.79881843	8767.16061134	9205.42490743	8995.22267209	10094.26836581	10791.49499443	11359.00197867	232.96032132	-47.08082395	108.93756060
40.19000000	8475.11662312	8753.07571925	9180.62025794	8974.12112485	10115.48495445	10794.45053623	11368.76071558	231.68908977	-48.35480464	111.13446267
40.20000000	8471.30023714	8742.43666509	9162.73467726	8960.06429012	10136.81473749	10801.00775819	11378.58124460	230.42220701	-49.70459943	113.34851814
40.21000000	8469.87971807	8736.60713242	9154.30545317	8955.28856183	10157.82434243	10811.82542676	11388.19581776	229.29238155	-51.04953046	115.31068804
40.22000000	8471.32408993	8736.80057595	9157.57398932	8961.75267624	10178.07936337	10827.43567172	11397.34661706	228.42136564	-52.31388266	116.77363216
40.23000000	8475.47229009	8742.67954562	9171.72709540	8978.54893826	10197.13472578	10847.06327481	11405.87833738	227.81780366	-53.47317475	117.71401967
40.24000000	8481.79153855	8752.99164078	9194.14953458	9003.07861214	10214.53906119	10869.16175254	11413.69615071	227.42361234	-54.53315066	118.24067328
40.25000000	8489.74425096	8766.47263518	9222.20277885	9032.72110571	10229.84091983	10892.17465297	11420.70601069	227.17984599	-55.49994497	118.46412374
40.26000000	8498.79284293	8781.85830256	9253.24830021	9064.85582675	10242.58885189	10914.54552413	11426.81387097	227.02755892	-56.37969226	118.49490182
40.27000000	8508.39973011	8797.88441668	9284.64757065	9096.86218311	10252.33140758	10934.71791407	11431.92568521	226.90780543	-57.17852711	118.44353829
40.28000000	8518.02732812	8813.28675129	9313.76206216	9126.11958257	10258.61713709	10951.13537082	11435.94740704	226.76163983	-57.90258411	118.42056390
40.29000000	8527.13805260	8826.80108014	9337.95324675	9150.00743296	10260.99459064	10962.24144242	11438.78499011	226.53011643	-58.55799783	118.53650942
40.30000000	8535.27058061	8837.38640262	9355.05965006	9166.37666101	10259.17257630	10966.81801173	11440.39057984	226.16512319	-59.15064234	118.88249180
40.31000000	8542.37607059	8845.20909627	9365.50007563	9175.62853514	10253.72670163	10965.47693978	11440.96616272	225.67714496	-59.68498266	119.44462295
40.32000000	8548.54449981	8850.84187667	9370.56170860	9179.02263051	10245.52429188	10959.44595907	11440.79780820	225.09638713	-60.16500959	120.17367577
40.33000000	8553.86595013	8854.85776562	9371.53238853	9177.81916908	10235.43289214	10949.95326619	11440.17164908	224.45306993	-60.59471357	121.02039656
40.34000000	8558.43050346	8857.82978488	9369.69995497	9173.27837281	10224.32004749	10938.22705773	11439.37381819	223.77741363	-60.97808504	121.93553158
40.35000000	8562.32824166	8860.33095624	9366.35224747	9166.66046366	10213.05330302	10925.49553031	11438.69044834	223.09963845	-61.31911445	122.86982712
40.36000000	8565.64924663	8862.93430149	9362.77710558	9159.22566359	10202.50020381	10912.98688050	11438.40767233	222.44996465	-61.62179224	123.77402946
40.37000000	8568.48360024	8866.21284242	9360.26236885	9152.23419455	10193.52829496	10901.92930491	11438.81162298	221.85861246	-61.89010886	124.59888488
40.38000000	8570.93060420	8870.66883871	9359.95306923	9146.81859660	10186.90251552	10893.41903054	11440.14244539	221.35201735	-62.12806223	125.30127445
40.39000000	8573.15770058	8876.28157405	9361.93880136	9143.16776069	10182.62948194	10887.57694654	11442.30040668	220.92864276	-62.33970558	125.88341934
